<?xml version="1.0" encoding="UTF-8"?><svg id="a" xmlns="http://www.w3.org/2000/svg" viewBox="0 0 492.054 113.038"><path d="M76.212,95.452l-17.587,17.587h-23.452V41.039H0v-23.452L17.587,0v23.452h35.174v72h23.452ZM93.799,41.039v54.413h17.587v-54.413h-17.587ZM111.386,23.452h-37.778v17.587h20.191s17.587-17.587,17.587-17.587ZM111.386,41.039v-17.587h17.587v17.587h-17.587ZM160.223,46.318v18.769c-1.474-.099-2.948-.099-3.734-.099-6.78,0-9.925,3.833-9.925,9.434v21.029h-17.59v-48.152h17.59v6.682h.099c3.439-5.011,8.254-7.664,13.462-7.664h.098ZM211.909,47.3v48.152h-17.591v-5.11h-.295c-3.342,4.028-7.96,6.092-13.069,6.092-9.827,0-17-5.306-17-20.931v-28.203h17.491v23.977c0,6.879,1.867,9.729,6.289,9.729,3.734,0,6.584-2.948,6.584-9.532v-24.174h17.591ZM217.211,71.376c0-14.839,10.809-25.058,26.435-25.058,7.959,0,16.115,3.341,20.931,9.924l-11.596,9.925c-2.162-2.555-5.011-4.324-8.942-4.324-5.503,0-9.139,3.931-9.139,9.433,0,5.602,3.733,9.631,9.335,9.631,4.52,0,7.173-2.162,8.647-3.931l11.989,10.318c-4.127,5.111-11.793,9.139-22.405,9.139-14.446,0-25.255-10.219-25.255-25.058ZM265.557,71.376c0-14.839,10.809-25.058,26.435-25.058,15.428,0,26.335,10.219,26.335,25.058s-10.908,25.058-26.335,25.058c-15.625,0-26.435-10.219-26.435-25.058ZM300.639,71.376c0-5.602-3.538-9.532-8.647-9.532s-8.746,3.931-8.746,9.532,3.733,9.63,8.746,9.63c4.913,0,8.647-4.029,8.647-9.63ZM355.175,46.318v18.769c-1.474-.099-2.948-.099-3.734-.099-6.78,0-9.925,3.833-9.925,9.434v21.029h-17.59v-48.152h17.59v6.682h.099c3.439-5.011,8.254-7.664,13.462-7.664h.098ZM409.023,23.452v72h-16.706v-4.52h-.098c-2.949,3.734-7.272,5.502-12.775,5.502-13.267,0-22.405-10.219-22.405-25.058s9.237-25.058,21.324-25.058c5.012,0,9.532,1.964,12.971,5.895h.098v-28.762h17.591ZM392.121,71.376c0-5.7-3.734-9.631-8.844-9.631-4.914,0-8.55,3.931-8.55,9.631,0,5.895,3.636,9.728,8.55,9.728,5.11,0,8.844-3.833,8.844-9.728ZM417.078,47.3h17.587v48.152h-17.587v-48.152ZM417.078,23.452h17.587v17.587h-17.587v-17.587ZM492.054,47.3v48.152h-16.706v-4.52h-.098c-2.85,3.734-7.076,5.502-12.382,5.502-13.169,0-22.405-10.219-22.405-25.058s9.335-25.058,21.324-25.058c4.717,0,9.238,1.964,12.578,5.797h.098v-4.815h17.591ZM475.25,71.376c0-5.7-3.833-9.631-8.451-9.631-5.012,0-8.55,3.931-8.55,9.631,0,5.895,3.538,9.728,8.55,9.728,4.618,0,8.451-3.833,8.451-9.728Z" fill="#ff4200" stroke-width="0"/></svg>