<svg height="192.106121" viewBox="0 0 84.271083 31.331079" width="520.545619" xmlns="http://www.w3.org/2000/svg"><g transform="translate(-318.09231 -367.87523)"><path d="m318.34231 398.95631h30.4227v-30.83108h-30.4227z" fill="#fff"/><g transform="translate(.25 -.250001)"><g fill="#010066"><path d="m319.07019 391.10189h9.34411v-8.19017h-9.34411z"/><path d="m319.07019 382.31139h9.34411v-12.90703h-9.34411z"/><path d="m328.95756 398.22006h5.75859v-6.56072h-5.75859z"/><path d="m319.07019 398.22006h9.34411v-6.56072h-9.34411z"/></g><g fill="#999"><path d="m338.62764 391.10189h8.9095v-8.19017h-8.9095z"/><path d="m335.25941 391.10189h2.82496v-8.19017h-2.82496z"/></g><g fill="#03c"><path d="m328.95756 382.31139h5.75859v-12.90703h-5.75859z"/><path d="m335.25941 382.31139h12.27773v-12.90703h-12.27773z"/><path d="m328.95756 391.10189h5.75859v-8.19017h-5.75859z"/></g><g fill="#fe9901"><path d="m335.25941 398.22006h2.82496v-6.56072h-2.82496z"/><path d="m338.62764 398.22006h8.9095v-6.56072h-8.9095z"/></g><g fill="#010066"><path d="m394.25772 394.70386c0 1.45793.10865 2.14402.65191 2.4013.43461.25729 1.30383.34305 2.2817.34305 1.19518 0 2.39036-.12864 2.93362-.72897.32596-.42881.76057-1.24354 1.08653-2.40131l.65191.0858c-.10865.68609-.65191 3.17316-.86922 3.81637h-10.9739v-.55745c2.0644-.12864 2.17305-.30016 2.17305-2.95875v-8.74763c0-2.65859-.10865-2.83011-2.17305-3.00163v-.55745h6.51915v.55745c-2.0644.17152-2.2817.34304-2.2817 3.00163v8.74763"/><path d="m369.37629 386.42792c-.76056-2.83011-2.39035-3.55908-4.78071-3.55908-4.3461 0-6.30184 3.3018-6.30184 7.11816 0 4.71686 2.39036 7.84713 6.4105 7.84713 2.71631 0 4.02014-1.32929 5.21532-3.90212l.54326.0858c-.32596 1.07201-.86922 3.00163-1.19518 3.945-.76057.17153-2.93362.68609-4.67206.68609-6.19319 0-8.80085-4.20229-8.80085-8.10441 0-5.01702 3.91149-8.49034 9.34412-8.49034 2.06439 0 3.69418.47168 4.3461.64321.2173 1.32929.32595 2.4013.43461 3.64484l-.54327.0858"/><path d="m386.32608 398.43446h-.65191l-10.64795-12.86415v6.21767c0 2.57283.10866 3.90213.21731 4.6311.10865.85761.76057 1.20065 2.39035 1.28641v.55745h-5.86723v-.55745c1.30383-.0429 1.95574-.4288 2.0644-1.28641.10865-.72897.2173-2.05827.2173-4.6311v-5.2743c0-1.7581 0-2.14402-.43461-2.70147-.54326-.60033-1.19518-.77185-2.17305-.85761v-.55745h3.58553l10.32199 12.30671v-5.83175c0-2.57283-.10865-3.85925-.2173-4.6311-.10866-.85761-.76057-1.20065-2.39036-1.28641v-.55745h5.86724v.55745c-1.30383.0429-1.95575.4288-2.0644 1.28641-.10865.77185-.21731 2.05827-.21731 4.6311z"/></g></g></g></svg>