<svg xmlns="http://www.w3.org/2000/svg" xmlns:xlink="http://www.w3.org/1999/xlink" width="251.49412584304804" height="224.39060974121094" viewBox="1.2416396141052246 1.2427992820739746 251.49412584304804 224.39060974121094"><defs><clipPath id="clip-9c952def"><rect x="0" y="0" width="253.97708129882812" height="226.87518310546875"/></clipPath></defs><g clip-path="url(#clip-9c952def)"><path d="M22.393997192382812 0L138.14299774169922 0A22.394004821777344 22.394004821777344 0 0 1 160.53700256347656 22.394004821777344L160.53700256347656 193.9966049194336A22.394004821777344 22.394004821777344 0 0 1 138.14299774169922 216.39060974121094L22.393997192382812 216.39060974121094A22.393997192382812 22.393997192382812 0 0 1 0 193.99661254882812L0 22.393997192382812A22.393997192382812 22.393997192382812 0 0 1 22.393997192382812 0z" transform="matrix(1,0,0,1,21.352466583251953,5.242799282073975)" fill="#ffffff" fill-rule="evenodd"/><path d="M22.393997192382812 0L138.14299774169922 0A22.394004821777344 22.394004821777344 0 0 1 160.53700256347656 22.394004821777344L160.53700256347656 193.9966049194336A22.394004821777344 22.394004821777344 0 0 1 138.14299774169922 216.39060974121094L22.393997192382812 216.39060974121094A22.393997192382812 22.393997192382812 0 0 1 0 193.99661254882812L0 22.393997192382812A22.393997192382812 22.393997192382812 0 0 1 22.393997192382812 0z" transform="matrix(1,0,0,1,21.352466583251953,5.242799282073975)" fill="none" stroke="#5726ef" stroke-width="8" stroke-linecap="round"/><path d="M0 0L33.3184814453125 0" transform="matrix(1,0,0,1,5.241639614105225,47.35990905761719)" fill="none" stroke="#5726ef" stroke-width="8" stroke-linecap="round"/><path d="M0 0L33.3184814453125 0" transform="matrix(1,0,0,1,5.241639614105225,69.09201049804688)" fill="none" stroke="#5726ef" stroke-width="8" stroke-linecap="round"/><path d="M0 0L33.3184814453125 0" transform="matrix(1,0,0,1,5.241639614105225,90.82410430908203)" fill="none" stroke="#5726ef" stroke-width="8" stroke-linecap="round"/><path d="M0 0L33.3184814453125 0" transform="matrix(1,0,0,1,5.241639614105225,112.55621337890625)" fill="none" stroke="#5726ef" stroke-width="8" stroke-linecap="round"/><path d="M0 0L33.3184814453125 0" transform="matrix(1,0,0,1,5.241639614105225,134.28829956054688)" fill="none" stroke="#5726ef" stroke-width="8" stroke-linecap="round"/><path d="M0 0L33.3184814453125 0" transform="matrix(1,0,0,1,5.241639614105225,156.02040100097656)" fill="none" stroke="#5726ef" stroke-width="8" stroke-linecap="round"/><path d="M0 0L33.3184814453125 0" transform="matrix(1,0,0,1,5.241639614105225,177.75250244140625)" fill="none" stroke="#5726ef" stroke-width="8" stroke-linecap="round"/><path d="M 134.0352935791016 150.9524383544922 L 217.7416381835938 67.24608612060547 C 220.6284790039062 64.35924530029297 220.6284790039062 59.6339111328125 217.7416381835938 56.74576568603516 L 204.5523834228516 43.55911254882812 C 201.6655426025391 40.67096710205078 196.9388885498047 40.67096710205078 194.0520629882812 43.55911254882812 L 110.3470077514648 127.2641677856445 L 92.87400817871094 169.5825347900391 L 134.0352935791016 150.9524383544922 Z" transform="matrix(1,0,0,1,28.828996658325195,12.848786354064941)" fill="#dcd4fa" fill-rule="evenodd"/><path d="M 134.0352935791016 150.9524383544922 L 217.7416381835938 67.24608612060547 C 220.6284790039062 64.35924530029297 220.6284790039062 59.6339111328125 217.7416381835938 56.74576568603516 L 204.5523834228516 43.55911254882812 C 201.6655426025391 40.67096710205078 196.9388885498047 40.67096710205078 194.0520629882812 43.55911254882812 L 110.3470077514648 127.2641677856445 L 92.87400817871094 169.5825347900391 L 134.0352935791016 150.9524383544922 Z" transform="matrix(1,0,0,1,28.828996658325195,12.848786354064941)" fill="none" stroke="#5726ef" stroke-width="8" stroke-linecap="round" stroke-linejoin="round"/><path d="M0 0L20.92462730407715 20.92462730407715" transform="matrix(1,0,0,1,208.73464965820312,72.7707290649414)" fill="#ffffff" fill-rule="evenodd"/><path d="M0 0L20.92462730407715 20.92462730407715" transform="matrix(1,0,0,1,208.73464965820312,72.7707290649414)" fill="none" stroke="#5726ef" stroke-width="8" stroke-linecap="round" stroke-linejoin="round"/></g></svg>