<svg xmlns="http://www.w3.org/2000/svg" xmlns:xlink="http://www.w3.org/1999/xlink" width="152.439697265625" height="236.03277969360352" viewBox="1.493988037109375 1.493988037109375 152.439697265625 236.03277969360352"><defs><clipPath id="clip-0f46d71c"><rect x="0" y="0" width="155.42767333984375" height="239.0200653076172"/></clipPath></defs><g clip-path="url(#clip-0f46d71c)"><path d="M 69.10768127441406 168.1164093017578 L 69.10768127441406 168.1164093017578 C 42.51403427124023 168.1164093017578 20.95700073242188 146.5579986572266 20.95700073242188 119.9657287597656 L 20.95700073242188 52.15068435668945 C 20.95700073242188 25.55840873718262 42.51403427124023 4 69.10768127441406 4 C 95.70133209228516 4 117.2583694458008 25.55840873718262 117.2583694458008 52.15068435668945 L 117.2583694458008 119.9657287597656 C 117.2583694458008 146.5579986572266 95.70133209228516 168.1164093017578 69.10768127441406 168.1164093017578" transform="matrix(1,0,0,1,7.8273773193359375,1.493988037109375)" fill="#ffffff" fill-rule="evenodd"/><path d="M 69.10768127441406 168.1164093017578 L 69.10768127441406 168.1164093017578 C 42.51403427124023 168.1164093017578 20.95700073242188 146.5579986572266 20.95700073242188 119.9657287597656 L 20.95700073242188 52.15068435668945 C 20.95700073242188 25.55840873718262 42.51403427124023 4 69.10768127441406 4 C 95.70133209228516 4 117.2583694458008 25.55840873718262 117.2583694458008 52.15068435668945 L 117.2583694458008 119.9657287597656 C 117.2583694458008 146.5579986572266 95.70133209228516 168.1164093017578 69.10768127441406 168.1164093017578 Z" transform="matrix(1,0,0,1,7.8273773193359375,1.493988037109375)" fill="none" stroke="#5726ef" stroke-width="8" stroke-linecap="round"/><path d="M0 0L28.72256851196289 0" transform="matrix(1,0,0,1,28.783828735351562,87.5517807006836)" fill="#ffffff" fill-rule="evenodd"/><path d="M0 0L28.72256851196289 0" transform="matrix(1,0,0,1,28.783828735351562,87.5517807006836)" fill="none" stroke="#5726ef" stroke-width="8" stroke-linecap="round"/><path d="M0 0L28.72256851196289 0" transform="matrix(1,0,0,1,28.783828735351562,59.13385009765625)" fill="#ffffff" fill-rule="evenodd"/><path d="M0 0L28.72256851196289 0" transform="matrix(1,0,0,1,28.783828735351562,59.13385009765625)" fill="none" stroke="#5726ef" stroke-width="8" stroke-linecap="round"/><path d="M0 0L28.72256851196289 0" transform="matrix(1,0,0,1,28.783828735351562,115.96969604492188)" fill="#ffffff" fill-rule="evenodd"/><path d="M0 0L28.72256851196289 0" transform="matrix(1,0,0,1,28.783828735351562,115.96969604492188)" fill="none" stroke="#5726ef" stroke-width="8" stroke-linecap="round"/><path d="M0 0L0 0" transform="matrix(1,0,0,1,125.08643341064453,87.5517807006836)" fill="#ffffff" fill-rule="evenodd"/><path d="M0 0L0 0" transform="matrix(1,0,0,1,125.08643341064453,87.5517807006836)" fill="none" stroke="#5726ef" stroke-width="8" stroke-linecap="round"/><path d="M0 0L0 0" transform="matrix(1,0,0,1,125.08643341064453,59.13385009765625)" fill="#ffffff" fill-rule="evenodd"/><path d="M0 0L0 0" transform="matrix(1,0,0,1,125.08643341064453,59.13385009765625)" fill="none" stroke="#5726ef" stroke-width="8" stroke-linecap="round"/><path d="M0 0L0 0" transform="matrix(1,0,0,1,125.08643341064453,115.96969604492188)" fill="#ffffff" fill-rule="evenodd"/><path d="M0 0L0 0" transform="matrix(1,0,0,1,125.08643341064453,115.96969604492188)" fill="none" stroke="#5726ef" stroke-width="8" stroke-linecap="round"/><path d="M 148.439697265625 89.49800109863281 C 148.439697265625 129.3197937011719 116.045768737793 161.7219543457031 76.2198486328125 161.7219543457031 C 36.39392471313477 161.7219543457031 4 129.3197937011719 4 89.49800109863281" transform="matrix(1,0,0,1,1.493988037109375,33.42723846435547)" fill="none" stroke="#5726ef" stroke-width="8" stroke-linecap="round"/><path d="M0 0L0 38.37825393676758" transform="matrix(1,0,0,1,77.714111328125,195.1485137939453)" fill="none" stroke="#5726ef" stroke-width="8" stroke-linecap="round"/><path d="M0 0L70.76667785644531 0" transform="matrix(1,0,0,1,42.3310432434082,233.5260772705078)" fill="none" stroke="#5726ef" stroke-width="8" stroke-linecap="round"/></g></svg>