<svg xmlns="http://www.w3.org/2000/svg" xmlns:xlink="http://www.w3.org/1999/xlink" width="228.57477844876126" height="236.5429880619049" viewBox="1.4765434265136714 1.4765434265136714 228.57477844876126 236.5429880619049"><defs><clipPath id="clip-5bd18f67"><rect x="0" y="0" width="231.52711486816406" height="239.49609375"/></clipPath></defs><g clip-path="url(#clip-5bd18f67)"><path d="M 37.70341873168945 157.0294036865234 C 37.53873825073242 155.7566070556641 37.45500183105469 154.4586639404297 37.45500183105469 153.1412200927734 C 37.45500183105469 143.27001953125 42.19870376586914 134.509765625 49.52708053588867 129.0180053710938" transform="matrix(1,0,0,1,14.81779956817627,51.04159164428711)" fill="none" stroke="#5726ef" stroke-width="7.460999965667725" stroke-linecap="round" stroke-linejoin="round"/><path d="M 34.87295150756836 78.78740692138672 C 25.09387016296387 75.48817443847656 17.39286041259766 67.67412567138672 14.22900009155273 57.84200286865234" transform="matrix(1,0,0,1,5.629220962524414,22.88321876525879)" fill="none" stroke="#5726ef" stroke-width="7.460999965667725" stroke-linecap="round" stroke-linejoin="round"/><path d="M 34.97304153442383 103.4560012817383 C 24.8269157409668 106.8724746704102 16.91795921325684 115.1596374511719 13.97599983215332 125.5402297973633" transform="matrix(1,0,0,1,5.529129981994629,40.928855895996094)" fill="none" stroke="#5726ef" stroke-width="7.460999965667725" stroke-linecap="round" stroke-linejoin="round"/><path d="M 110.9380340576172 169.7088165283203 L 110.9380340576172 202.7053680419922 C 110.9380340576172 219.3341064453125 97.47453308105469 232.81298828125 80.86809539794922 232.81298828125 C 65.57633209228516 232.81298828125 52.96135711669922 221.3828887939453 51.0549430847168 206.5921630859375 C 50.5357780456543 206.6172790527344 50.01520919799805 206.6326293945312 49.48906326293945 206.6326293945312 C 31.43816375732422 206.6326293945312 16.80513191223145 191.9800567626953 16.80513191223145 173.9068298339844 C 16.80513191223145 170.8141326904297 17.24195861816406 167.8275146484375 18.04164695739746 164.9916229248047 C 9.59398365020752 161.0211029052734 3.731000185012817 152.4520263671875 3.731000185012817 142.4887084960938 C 3.731000185012817 134.1038665771484 7.887144565582275 126.7043151855469 14.23580265045166 122.1992645263672 C 7.887144565582275 117.694221496582 3.731000185012817 110.2932662963867 3.731000185012817 101.9084091186523 C 3.731000185012817 91.81112670898438 9.75029182434082 83.13736724853516 18.38496780395508 79.24080657958984 C 17.36198234558105 76.07136535644531 16.80513191223145 72.69258117675781 16.80513191223145 69.18260955810547 C 16.80513191223145 51.10937118530273 31.43816375732422 36.4567985534668 49.48906326293945 36.4567985534668 C 49.96915435791016 36.4567985534668 50.4450569152832 36.47215270996094 50.91957092285156 36.49308776855469 C 50.84420394897461 35.61803436279297 50.79675674438477 34.73321151733398 50.79675674438477 33.83862686157227 C 50.79675674438477 17.20985984802246 64.26026916503906 3.731000185012817 80.86809539794922 3.731000185012817 C 97.47453308105469 3.731000185012817 110.9380340576172 17.20985984802246 110.9380340576172 33.83862686157227 L 110.9380340576172 66.83518218994141" transform="matrix(1,0,0,1,1.4760432243347168,1.4760432243347168)" fill="none" stroke="#5726ef" stroke-width="7.460999965667725" stroke-linecap="round" stroke-linejoin="round"/><path d="M 65.74349975585938 69.29265594482422 C 55.84578704833984 69.29265594482422 47.82099914550781 61.28740692138672 47.82099914550781 51.41202545166016 C 47.82099914550781 41.53664398193359 55.84578704833984 33.52999877929688 65.74349975585938 33.52999877929688" transform="matrix(1,0,0,1,18.91875457763672,13.265006065368652)" fill="none" stroke="#5726ef" stroke-width="7.460999965667725" stroke-linecap="round" stroke-linejoin="round"/><path d="M 45.1829948425293 83.5989990234375 C 57.70446395874023 83.5989990234375 67.85478210449219 93.72560119628906 67.85478210449219 106.2191467285156 C 67.85478210449219 118.7113037109375 57.70446395874023 128.8392791748047 45.1829948425293 128.8392791748047" transform="matrix(1,0,0,1,17.875123977661133,33.07310485839844)" fill="none" stroke="#5726ef" stroke-width="7.460999965667725" stroke-linecap="round" stroke-linejoin="round"/><path d="M 140.8200073242188 90.02857208251953 C 140.8200073242188 81.79582977294922 147.4896545410156 75.12200164794922 155.7154083251953 75.12200164794922 C 163.9425811767578 75.12200164794922 170.6108245849609 81.79582977294922 170.6108245849609 90.02857208251953 C 170.6108245849609 98.26131439208984 163.9425811767578 104.9351501464844 155.7154083251953 104.9351501464844 C 147.4896545410156 104.9351501464844 140.8200073242188 98.26131439208984 140.8200073242188 90.02857208251953" transform="matrix(1,0,0,1,55.710655212402344,29.71946907043457)" fill="#ffffff" fill-rule="evenodd"/><path d="M0 14.806575202941895a14.895400047302246 14.906575202941895 0 1 1 0 0.1z" transform="matrix(1,0,0,1,196.5301055908203,104.84161376953125)" fill="none" stroke="#5726ef" stroke-width="7.460999965667725" stroke-linecap="round" stroke-linejoin="round"/><path d="M0 0L0 0" transform="matrix(1,0,0,1,196.53009033203125,119.74832153320312)" fill="none" stroke="#5726ef" stroke-width="7.460999965667725" stroke-linecap="round" stroke-linejoin="round"/><path d="M 137.1847991943359 37.85508346557617 C 143.0045013427734 32.03396606445312 152.4388580322266 32.03117752075195 158.2557983398438 37.84949493408203 C 164.0727233886719 43.66782379150391 164.0699462890625 53.10358047485352 158.2502288818359 58.92469787597656 C 152.4304809570312 64.74581146240234 142.9961242675781 64.74860382080078 137.17919921875 58.93027877807617 C 131.3622741699219 53.11195755004883 131.3650512695312 43.67619705200195 137.1847991943359 37.85508346557617" transform="matrix(1,0,0,1,52.54500961303711,13.24819278717041)" fill="#ffffff" fill-rule="evenodd"/><path d="M0 14.796657943725586a14.905203819274902 14.896657943725586 0 1 1 0 0.1z" transform="matrix(0.5549154281616211,-0.831906795501709,0.831906795501709,0.5549154281616211,179.5981903076172,65.7708969116211)" fill="none" stroke="#5726ef" stroke-width="7.460999965667725" stroke-linecap="round" stroke-linejoin="round"/><path d="M 157.8577423095703 51.71790313720703 L 135.5502166748047 73.97378540039062 L 80.54759216308594 73.97378540039062" transform="matrix(1,0,0,1,31.865921020507812,20.460432052612305)" fill="none" stroke="#5726ef" stroke-width="7.460999965667725" stroke-linecap="round" stroke-linejoin="round"/><path d="M 137.1847991943359 142.2006988525391 C 143.0045013427734 148.0217895507812 152.4388580322266 148.0245819091797 158.2557983398438 142.2062835693359 C 164.0727233886719 136.3879547119141 164.0699462890625 126.9521789550781 158.2502288818359 121.1310729980469 C 152.4304809570312 115.3099670410156 142.9961242675781 115.3071670532227 137.17919921875 121.12548828125 C 131.3622741699219 126.9438018798828 131.3650512695312 136.3795623779297 137.1847991943359 142.2006988525391" transform="matrix(1,0,0,1,52.54500961303711,46.193511962890625)" fill="#ffffff" fill-rule="evenodd"/><path d="M0 14.805204772949219a14.896658897399902 14.905204772949219 0 1 1 0 0.1z" transform="matrix(0.8316554427146912,-0.5552920699119568,0.5552920699119568,0.8316554427146912,179.59634399414062,173.73512268066406)" fill="none" stroke="#5726ef" stroke-width="7.460999965667725" stroke-linecap="round" stroke-linejoin="round"/><path d="M 157.8577423095703 126.1977996826172 L 135.5502166748047 103.9405136108398 L 80.54759216308594 103.9405136108398" transform="matrix(1,0,0,1,31.865921020507812,41.12052536010742)" fill="none" stroke="#5726ef" stroke-width="7.460999965667725" stroke-linecap="round" stroke-linejoin="round"/><path d="M 98.19500732421875 23.81657409667969 C 98.19500732421875 32.04931640625 104.8632507324219 38.72315216064453 113.0904083251953 38.72315216064453 C 121.3175582885742 38.72315216064453 127.9858169555664 32.04931640625 127.9858169555664 23.81657409667969 C 127.9858169555664 15.58383750915527 121.3175582885742 8.909999847412109 113.0904083251953 8.909999847412109 C 104.8632507324219 8.909999847412109 98.19500732421875 15.58383750915527 98.19500732421875 23.81657409667969" transform="matrix(1,0,0,1,38.847511291503906,3.5249388217926025)" fill="#ffffff" fill-rule="evenodd"/><path d="M0 14.806575202941895a14.895413398742676 14.906575202941895 0 1 1 0 0.1z" transform="matrix(1,0,0,1,137.04278564453125,12.434667587280273)" fill="none" stroke="#5726ef" stroke-width="7.460999965667725" stroke-linecap="round" stroke-linejoin="round"/><path d="M 89.55889892578125 56.33533096313477 L 116.5068359375 56.33533096313477 L 116.5068359375 30.27220153808594" transform="matrix(1,0,0,1,35.430938720703125,11.976168632507324)" fill="none" stroke="#5726ef" stroke-width="7.460999965667725" stroke-linecap="round" stroke-linejoin="round"/><path d="M 98.19500732421875 156.2415771484375 C 98.19500732421875 148.0088348388672 104.8632507324219 141.3349914550781 113.0904083251953 141.3349914550781 C 121.3175582885742 141.3349914550781 127.9858169555664 148.0088348388672 127.9858169555664 156.2415771484375 C 127.9858169555664 164.4742889404297 121.3175582885742 171.1481475830078 113.0904083251953 171.1481475830078 C 104.8632507324219 171.1481475830078 98.19500732421875 164.4742889404297 98.19500732421875 156.2415771484375" transform="matrix(1,0,0,1,38.847511291503906,55.91441345214844)" fill="#ffffff" fill-rule="evenodd"/><path d="M0 14.806575202941895a14.895413398742676 14.906575202941895 0 1 1 0 0.1z" transform="matrix(1,0,0,1,137.04278564453125,197.2487030029297)" fill="none" stroke="#5726ef" stroke-width="7.460999965667725" stroke-linecap="round" stroke-linejoin="round"/><path d="M 89.55889892578125 122.6591949462891 L 116.5068359375 122.6591949462891 L 116.5068359375 148.7223205566406" transform="matrix(1,0,0,1,35.430938720703125,48.52595520019531)" fill="none" stroke="#5726ef" stroke-width="7.460999965667725" stroke-linecap="round" stroke-linejoin="round"/></g></svg>