<svg xmlns="http://www.w3.org/2000/svg" xmlns:xlink="http://www.w3.org/1999/xlink" width="236.80087280273438" height="236.90533339977264" viewBox="1.2955374717712402 1.2953959703445435 236.80087280273438 236.90533339977264"><defs><clipPath id="clip-80cfca1f"><rect x="0" y="0" width="239.39276123046875" height="239.49600219726562"/></clipPath></defs><g clip-path="url(#clip-80cfca1f)"><path d="M9.439998626708984 0L219.36087036132812 0A9.44000244140625 9.44000244140625 0 0 1 228.80087280273438 9.44000244140625L228.80087280273438 134.16156005859375A9.440994262695312 9.440994262695312 0 0 1 219.35987854003906 143.60255432128906L9.44000244140625 143.60255432128906A9.44000244140625 9.44000244140625 0 0 1 0 134.1625518798828L0 9.439998626708984A9.439998626708984 9.439998626708984 0 0 1 9.439998626708984 0z" transform="matrix(1,0,0,1,5.29553747177124,54.46678924560547)" fill="none" stroke="#5726ef" stroke-width="8"/><path d="M0 0L128.58119201660156 0" transform="matrix(1,0,0,1,61.227935791015625,234.2007293701172)" fill="none" stroke="#5726ef" stroke-width="8" stroke-linecap="round" stroke-linejoin="round"/><path d="M0 0L0 0" transform="matrix(1,0,0,1,88.14037322998047,231.2104892730713)" fill="none" stroke="#5726ef" stroke-width="8" stroke-linecap="round" stroke-linejoin="round"/><path d="M0 0L0 29.902416229248047" transform="matrix(1,0,0,1,159.15928649902344,200.56024169921875)" fill="none" stroke="#5726ef" stroke-width="8" stroke-linecap="round" stroke-linejoin="round"/><path d="M 169.9491882324219 169.3622436523438 L 169.9491882324219 30.81933784484863 L 141.6353454589844 4.000091552734375 L 42.86259460449219 4.000091552734375 L 42.86259460449219 169.3622436523438" transform="matrix(1,0,0,1,13.879709243774414,1.2953044176101685)" fill="#ffffff" fill-rule="evenodd"/><path d="M 169.9491882324219 169.3622436523438 L 169.9491882324219 30.81933784484863 L 141.6353454589844 4.000091552734375 L 42.86259460449219 4.000091552734375 L 42.86259460449219 169.3622436523438" transform="matrix(1,0,0,1,13.879709243774414,1.2953044176101685)" fill="none" stroke="#5726ef" stroke-width="8"/><path d="M 116.115837097168 64.62909698486328 L 93.61225128173828 88.61933898925781 L 80.52629852294922 76.34621429443359" transform="matrix(1,0,0,1,26.07592010498047,20.92810821533203)" fill="none" stroke="#5726ef" stroke-width="8"/><path d="M0 36.15674819946289a36.25674819946289 36.25674819946289 0 1 1 0 0.1z" transform="matrix(1,0,0,1,85.52438354492188,63.755760192871094)" fill="none" stroke="#5726ef" stroke-width="8"/><path d="M0 0L179.4158172607422 0" transform="matrix(1,0,0,1,32.072818756103516,168.04104614257812)" fill="none" stroke="#5726ef" stroke-width="8" stroke-linecap="round" stroke-linejoin="round"/><path d="M 112.4557037353516 5.75360107421875 L 112.4557037353516 37.19562530517578 L 144.0565948486328 36.85540008544922" transform="matrix(1,0,0,1,36.41525650024414,1.8631235361099243)" fill="#ffffff" fill-rule="evenodd"/><path d="M 112.4557037353516 5.75360107421875 L 112.4557037353516 37.19562530517578 L 144.0565948486328 36.85540008544922" transform="matrix(1,0,0,1,36.41525650024414,1.8631235361099243)" fill="none" stroke="#5726ef" stroke-width="8"/></g></svg>