<svg xmlns="http://www.w3.org/2000/svg" xmlns:xlink="http://www.w3.org/1999/xlink" width="48.12078857421875" height="48.00128173828102" viewBox="1585.8980712890625 1302.4754638671877 48.12078857421875 48.00128173828102"><g transform="matrix(1,0,0,1,1585.8980712890625,1302.4754638671875)"><path d="M 55.5 1002.345397949219 L 103.5013961791992 1002.345397949219 L 103.5013961791992 1028.257934570312 L 101.1254653930664 1031.970336914062 L 103.5013961791992 1035.2744140625 L 103.5013961791992 1050.3466796875 L 55.50000762939453 1050.3466796875 L 55.50000762939453 1025.919067382812 L 56.98496246337891 1024.211303710938 L 55.5 1022.577941894531 L 55.5 1002.345397949219 Z" transform="matrix(1,0,0,1,-55.5,-1002.3453979492188)" fill="#016fd0" fill-rule="evenodd"/><path d="M 249.1401824951172 1548.37109375 L 249.1401824951172 1540.834716796875 L 257.1195678710938 1540.834716796875 L 257.9757080078125 1541.95068359375 L 258.8600769042969 1540.834716796875 L 287.8234252929688 1540.834716796875 L 287.8234252929688 1547.851196289062 C 287.8234252929688 1547.851196289062 287.0659790039062 1548.363403320312 286.1900024414062 1548.37109375 L 270.1524047851562 1548.37109375 L 269.1871337890625 1547.182983398438 L 269.1871337890625 1548.37109375 L 266.024169921875 1548.37109375 L 266.024169921875 1546.342895507812 C 266.024169921875 1546.342895507812 265.5921020507812 1546.626220703125 264.6580200195312 1546.626220703125 L 263.5814208984375 1546.626220703125 L 263.5814208984375 1548.37109375 L 258.7924499511719 1548.37109375 L 257.9375610351562 1547.230834960938 L 257.069580078125 1548.37109375 L 249.1401824951172 1548.37109375 Z" transform="matrix(1,0,0,1,-239.82205200195312,-1514.922119140625)" fill="#ffffff" fill-rule="evenodd"/><path d="M 55.5 1339.817504882812 L 57.29939270019531 1335.62255859375 L 60.41125106811523 1335.62255859375 L 61.43242263793945 1337.97216796875 L 61.43242263793945 1335.62255859375 L 65.30075073242188 1335.62255859375 L 65.90866088867188 1337.320922851562 L 66.49800872802734 1335.62255859375 L 83.86278533935547 1335.62255859375 L 83.86278533935547 1336.476318359375 C 83.86278533935547 1336.476318359375 84.775634765625 1335.62255859375 86.27584838867188 1335.62255859375 L 91.91006469726562 1335.642211914062 L 92.91362762451172 1337.961303710938 L 92.91362762451172 1335.62255859375 L 96.15084075927734 1335.62255859375 L 97.04180908203125 1336.95458984375 L 97.04180908203125 1335.62255859375 L 100.3087310791016 1335.62255859375 L 100.3087310791016 1343.158569335938 L 97.04180908203125 1343.158569335938 L 96.18795776367188 1341.822265625 L 96.18795776367188 1343.158569335938 L 91.43177032470703 1343.158569335938 L 90.95347595214844 1341.970825195312 L 89.67485046386719 1341.970825195312 L 89.20432281494141 1343.158569335938 L 85.97885131835938 1343.158569335938 C 84.68796539306641 1343.158569335938 83.86278533935547 1342.322143554688 83.86278533935547 1342.322143554688 L 83.86278533935547 1343.158569335938 L 78.99952697753906 1343.158569335938 L 78.0343017578125 1341.970825195312 L 78.0343017578125 1343.158569335938 L 59.95024871826172 1343.158569335938 L 59.47227478027344 1341.970825195312 L 58.19772720336914 1341.970825195312 L 57.7231330871582 1343.158569335938 L 55.5 1343.158569335938 L 55.5 1339.817504882812 Z" transform="matrix(1,0,0,1,-55.5,-1319.5849609375)" fill="#ffffff" fill-rule="evenodd"/><path d="M 58.11985778808594 1354.928955078125 L 55.69287109375 1360.571899414062 L 57.27296447753906 1360.571899414062 L 57.72076797485352 1359.441772460938 L 60.3240966796875 1359.441772460938 L 60.76958465576172 1360.571899414062 L 62.38448333740234 1360.571899414062 L 59.95981597900391 1354.928955078125 L 58.11985778808594 1354.928955078125 Z M 59.01779556274414 1356.242309570312 L 59.81132507324219 1358.216796875 L 58.22194290161133 1358.216796875 L 59.01779556274414 1356.242309570312 Z" transform="matrix(1,0,0,1,-55.683589935302734,-1337.9622802734375)" fill="#016fd0" fill-rule="evenodd"/><path d="M 198.2228393554688 1360.552001953125 L 198.2228393554688 1354.909423828125 L 200.4682312011719 1354.917724609375 L 201.7742156982422 1358.555786132812 L 203.0489654541016 1354.909423828125 L 205.2764129638672 1354.909423828125 L 205.2764129638672 1360.552001953125 L 203.8657073974609 1360.552001953125 L 203.8657073974609 1356.394409179688 L 202.3702850341797 1360.552001953125 L 201.1331024169922 1360.552001953125 L 199.633544921875 1356.394409179688 L 199.633544921875 1360.552001953125 L 198.2228393554688 1360.552001953125 Z" transform="matrix(1,0,0,1,-191.35487365722656,-1337.9437255859375)" fill="#016fd0" fill-rule="evenodd"/><path d="M 364.8613891601562 1360.552001953125 L 364.8613891601562 1354.909423828125 L 369.4647216796875 1354.909423828125 L 369.4647216796875 1356.171508789062 L 366.2869262695312 1356.171508789062 L 366.2869262695312 1357.136596679688 L 369.3904724121094 1357.136596679688 L 369.3904724121094 1358.324829101562 L 366.2869262695312 1358.324829101562 L 366.2869262695312 1359.327026367188 L 369.4647216796875 1359.327026367188 L 369.4647216796875 1360.55224609375 L 364.8613891601562 1360.552001953125 Z" transform="matrix(1,0,0,1,-349.974609375,-1337.9437255859375)" fill="#016fd0" fill-rule="evenodd"/><path d="M 477.4967346191406 1354.928955078125 L 477.4967346191406 1360.571899414062 L 478.9073791503906 1360.571899414062 L 478.9073791503906 1358.567138671875 L 479.5014038085938 1358.567138671875 L 481.19287109375 1360.571899414062 L 482.9168090820312 1360.571899414062 L 481.0606384277344 1358.492919921875 C 481.8224182128906 1358.428588867188 482.6082458496094 1357.774658203125 482.6082458496094 1356.759765625 C 482.6082458496094 1355.572265625 481.6762390136719 1354.928955078125 480.6360168457031 1354.928955078125 L 477.4967346191406 1354.928955078125 Z M 478.9073791503906 1356.191162109375 L 480.5199890136719 1356.191162109375 C 480.9068298339844 1356.191162109375 481.188232421875 1356.493896484375 481.188232421875 1356.785278320312 C 481.188232421875 1357.16015625 480.8236083984375 1357.379272460938 480.5408935546875 1357.379272460938 L 478.9073791503906 1357.379272460938 L 478.9073791503906 1356.191162109375 Z" transform="matrix(1,0,0,1,-457.18988037109375,-1337.9622802734375)" fill="#016fd0" fill-rule="evenodd"/><path d="M 597.1270141601562 1360.552001953125 L 595.6865844726562 1360.552001953125 L 595.6865844726562 1354.909423828125 L 597.1270141601562 1354.909423828125 L 597.1270141601562 1360.552001953125 Z" transform="matrix(1,0,0,1,-569.6923828125,-1337.9437255859375)" fill="#016fd0" fill-rule="evenodd"/><path d="M 642.6207275390625 1360.552001953125 L 642.309814453125 1360.552001953125 C 640.805419921875 1360.552001953125 639.89208984375 1359.367065429688 639.89208984375 1357.754028320312 C 639.89208984375 1356.10107421875 640.7952880859375 1354.909423828125 642.6949462890625 1354.909423828125 L 644.254150390625 1354.909423828125 L 644.254150390625 1356.245727539062 L 642.637939453125 1356.245727539062 C 641.8668212890625 1356.245727539062 641.3214111328125 1356.847534179688 641.3214111328125 1357.767944335938 C 641.3214111328125 1358.860717773438 641.945068359375 1359.319702148438 642.843505859375 1359.319702148438 L 643.2147216796875 1359.319702148438 L 642.6207275390625 1360.552001953125 Z" transform="matrix(1,0,0,1,-611.7705688476562,-1337.9437255859375)" fill="#016fd0" fill-rule="evenodd"/><path d="M 712.3786010742188 1354.928955078125 L 709.95166015625 1360.571899414062 L 711.5317993164062 1360.571899414062 L 711.9795532226562 1359.441772460938 L 714.5828857421875 1359.441772460938 L 715.0283203125 1360.571899414062 L 716.643310546875 1360.571899414062 L 714.2186279296875 1354.928955078125 L 712.3786010742188 1354.928955078125 Z M 713.276611328125 1356.242309570312 L 714.070068359375 1358.216796875 L 712.480712890625 1358.216796875 L 713.276611328125 1356.242309570312 Z" transform="matrix(1,0,0,1,-678.4588623046875,-1337.9622802734375)" fill="#016fd0" fill-rule="evenodd"/><path d="M 852.433349609375 1360.552001953125 L 852.433349609375 1354.909423828125 L 854.2268676757812 1354.909423828125 L 856.5169677734375 1358.45458984375 L 856.5169677734375 1354.909423828125 L 857.927734375 1354.909423828125 L 857.927734375 1360.552001953125 L 856.1920776367188 1360.552001953125 L 853.8440551757812 1356.913940429688 L 853.8440551757812 1360.552001953125 L 852.433349609375 1360.552001953125 Z" transform="matrix(1,0,0,1,-814.0841674804688,-1337.9437255859375)" fill="#016fd0" fill-rule="evenodd"/><path d="M 269.198486328125 1565.764526367188 L 269.198486328125 1560.121704101562 L 273.8018798828125 1560.121704101562 L 273.8018798828125 1561.383911132812 L 270.6240539550781 1561.383911132812 L 270.6240539550781 1562.34912109375 L 273.7276306152344 1562.34912109375 L 273.7276306152344 1563.537109375 L 270.6240539550781 1563.537109375 L 270.6240539550781 1564.539428710938 L 273.8018798828125 1564.539428710938 L 273.8018798828125 1565.764526367188 L 269.198486328125 1565.764526367188 Z" transform="matrix(1,0,0,1,-258.9151306152344,-1533.281005859375)" fill="#016fd0" fill-rule="evenodd"/><path d="M 737.946533203125 1565.764526367188 L 737.946533203125 1560.121704101562 L 742.5499267578125 1560.121704101562 L 742.5499267578125 1561.383911132812 L 739.3720703125 1561.383911132812 L 739.3720703125 1562.34912109375 L 742.4609375 1562.34912109375 L 742.4609375 1563.537109375 L 739.3720703125 1563.537109375 L 739.3720703125 1564.539428710938 L 742.5499267578125 1564.539428710938 L 742.5499267578125 1565.764526367188 L 737.946533203125 1565.764526367188 Z" transform="matrix(1,0,0,1,-705.1066284179688,-1533.281005859375)" fill="#016fd0" fill-rule="evenodd"/><path d="M 367.5184631347656 1565.764404296875 L 369.7598266601562 1562.977783203125 L 367.465087890625 1560.12158203125 L 369.2423706054688 1560.12158203125 L 370.6090393066406 1561.88720703125 L 371.9802856445312 1560.12158203125 L 373.68798828125 1560.12158203125 L 371.4234313964844 1562.94287109375 L 373.6689147949219 1565.764404296875 L 371.8919067382812 1565.764404296875 L 370.5649719238281 1564.0263671875 L 369.2702331542969 1565.764404296875 L 367.5184631347656 1565.764404296875 Z" transform="matrix(1,0,0,1,-352.4530334472656,-1533.2808837890625)" fill="#016fd0" fill-rule="evenodd"/><path d="M 499.8694458007812 1560.141479492188 L 499.8694458007812 1565.784423828125 L 501.3173217773438 1565.784423828125 L 501.3173217773438 1564.00244140625 L 502.80224609375 1564.00244140625 C 504.0587463378906 1564.00244140625 505.0111694335938 1563.335693359375 505.0111694335938 1562.039428710938 C 505.0111694335938 1560.965576171875 504.2641906738281 1560.141479492188 502.9855651855469 1560.141479492188 L 499.8694458007812 1560.141479492188 Z M 501.3173217773438 1561.41748046875 L 502.8811645507812 1561.41748046875 C 503.287109375 1561.41748046875 503.5772399902344 1561.666259765625 503.5772399902344 1562.067260742188 C 503.5772399902344 1562.44384765625 503.2885437011719 1562.716918945312 502.8765258789062 1562.716918945312 L 501.3173217773438 1562.716918945312 L 501.3173217773438 1561.41748046875 Z" transform="matrix(1,0,0,1,-478.4859924316406,-1533.2998046875)" fill="#016fd0" fill-rule="evenodd"/><path d="M 619.4479370117188 1560.12158203125 L 619.4479370117188 1565.764404296875 L 620.858642578125 1565.764404296875 L 620.858642578125 1563.759521484375 L 621.4525756835938 1563.759521484375 L 623.1441040039062 1565.764404296875 L 624.8680419921875 1565.764404296875 L 623.0118408203125 1563.685302734375 C 623.7735595703125 1563.62109375 624.5594482421875 1562.96728515625 624.5594482421875 1561.9521484375 C 624.5594482421875 1560.7646484375 623.6273803710938 1560.12158203125 622.5872192382812 1560.12158203125 L 619.4479370117188 1560.12158203125 Z M 620.858642578125 1561.383544921875 L 622.47119140625 1561.383544921875 C 622.8580322265625 1561.383544921875 623.139404296875 1561.686279296875 623.139404296875 1561.9775390625 C 623.139404296875 1562.3525390625 622.7748413085938 1562.571533203125 622.4921264648438 1562.571533203125 L 620.858642578125 1562.571533203125 L 620.858642578125 1561.383544921875 Z" transform="matrix(1,0,0,1,-592.3102416992188,-1533.2808837890625)" fill="#016fd0" fill-rule="evenodd"/><path d="M 843.6441650390625 1565.764404296875 L 843.6441650390625 1564.539306640625 L 846.4674682617188 1564.539306640625 C 846.88525390625 1564.539306640625 847.0661010742188 1564.3134765625 847.0661010742188 1564.06591796875 C 847.0661010742188 1563.82861328125 846.8857421875 1563.5888671875 846.4674682617188 1563.5888671875 L 845.1917114257812 1563.5888671875 C 844.0827026367188 1563.5888671875 843.465087890625 1562.9130859375 843.465087890625 1561.898681640625 C 843.465087890625 1560.993896484375 844.0307006835938 1560.12158203125 845.6785888671875 1560.12158203125 L 848.4257202148438 1560.12158203125 L 847.831787109375 1561.39111328125 L 845.4558715820312 1561.39111328125 C 845.0016479492188 1561.39111328125 844.86181640625 1561.62939453125 844.86181640625 1561.85693359375 C 844.86181640625 1562.0908203125 845.0346069335938 1562.348876953125 845.3815307617188 1562.348876953125 L 846.7180786132812 1562.348876953125 C 847.9542846679688 1562.348876953125 848.49072265625 1563.050048828125 848.49072265625 1563.968505859375 C 848.49072265625 1564.95556640625 847.8929443359375 1565.764404296875 846.6507568359375 1565.764404296875 L 843.6441650390625 1565.764404296875 Z" transform="matrix(1,0,0,1,-805.5475463867188,-1533.2808837890625)" fill="#016fd0" fill-rule="evenodd"/><path d="M 951.2406616210938 1565.764404296875 L 951.2406616210938 1564.539306640625 L 954.0639038085938 1564.539306640625 C 954.481689453125 1564.539306640625 954.66259765625 1564.3134765625 954.66259765625 1564.06591796875 C 954.66259765625 1563.82861328125 954.4822998046875 1563.5888671875 954.0639038085938 1563.5888671875 L 952.7881469726562 1563.5888671875 C 951.67919921875 1563.5888671875 951.0615844726562 1562.9130859375 951.0615844726562 1561.898681640625 C 951.0615844726562 1560.993896484375 951.6270751953125 1560.12158203125 953.2750854492188 1560.12158203125 L 956.0222778320312 1560.12158203125 L 955.4282836914062 1561.39111328125 L 953.0523681640625 1561.39111328125 C 952.5980834960938 1561.39111328125 952.4583740234375 1561.62939453125 952.4583740234375 1561.85693359375 C 952.4583740234375 1562.0908203125 952.631103515625 1562.348876953125 952.97802734375 1562.348876953125 L 954.3145141601562 1562.348876953125 C 955.5508422851562 1562.348876953125 956.0872192382812 1563.050048828125 956.0872192382812 1563.968505859375 C 956.0872192382812 1564.95556640625 955.489501953125 1565.764404296875 954.2472534179688 1565.764404296875 L 951.2406616210938 1565.764404296875 Z" transform="matrix(1,0,0,1,-907.9664306640625,-1533.2808837890625)" fill="#016fd0" fill-rule="evenodd"/></g></svg>