<svg xmlns="http://www.w3.org/2000/svg" xmlns:xlink="http://www.w3.org/1999/xlink" width="162.80289821933718" height="177.71791784986357" viewBox="77.35102081298828 48.53019006029269 162.80289821933718 177.71791784986357"><defs><clipPath id="clip-5d763c2e"><rect x="0" y="0" width="162.803955078125" height="177.71847534179688"/></clipPath><clipPath id="clip-5d763c2e"><rect x="0" y="0" width="162.803955078125" height="177.71847534179688"/></clipPath></defs><g transform="matrix(1,0,0,1,77.35102081298828,48.529632568359375)"><g clip-path="url(#clip-5d763c2e)"><path d="M 44.9377326965332 177.7184448242188 C 44.04095458984375 177.7184448242188 43.14311599731445 177.3761596679688 42.45854568481445 176.6915893554688 L 6.450143814086914 140.6842651367188 C 2.463190317153931 137.4053344726562 0.1748781800270081 132.3542022705078 0.1642150282859802 126.7912292480469 L 2.492289695510408e-06 43.44697952270508 C -0.02132380940020084 32.63987350463867 8.471877098083496 22.43950271606445 18.93136215209961 20.70780754089355 L 142.4970092773438 0.261212557554245 C 147.7251586914062 -0.6046352982521057 152.7101745605469 0.7026671171188354 156.5350494384766 3.93999981880188 C 160.4036407470703 7.214653491973877 162.6279907226562 12.22207069396973 162.6397247314453 17.68053817749023 L 162.8028564453125 101.0247955322266 C 162.8252716064453 111.8318939208984 154.33203125 122.0322723388672 143.8714904785156 123.7639617919922 L 36.752685546875 141.4893341064453 C 34.84397888183594 141.8049621582031 33.03764724731445 140.5125885009766 32.72095108032227 138.6028289794922 C 32.40425491333008 136.6919708251953 33.69769287109375 134.8867034912109 35.60746383666992 134.5710754394531 L 142.7262878417969 116.8457183837891 C 149.8236541748047 115.6716995239258 155.8056945800781 108.432487487793 155.790771484375 101.0386581420898 L 155.6276397705078 17.69440078735352 C 155.6201477050781 14.24806976318359 154.3331146240234 11.26345157623291 152.0042724609375 9.292902946472168 C 149.7767639160156 7.406590461730957 146.8049468994141 6.656971454620361 143.6422271728516 7.178398609161377 L 20.07658386230469 27.62606048583984 C 12.98025798797607 28.80007553100586 6.997162342071533 36.03928756713867 7.012091159820557 43.43312072753906 L 7.176303863525391 126.7773742675781 C 7.18270206451416 130.3314056396484 8.539054870605469 133.3725433349609 10.99477863311768 135.3409423828125 L 11.28055095672607 135.5979309082031 L 47.41690444946289 171.7332153320312 C 48.78606033325195 173.1023712158203 48.78606033325195 175.3224334716797 47.41690444946289 176.6915893554688 C 46.73233413696289 177.3761596679688 45.83449554443359 177.7184448242188 44.9377326965332 177.7184448242188" transform="matrix(1,0,0,1,-0.0000024923042474256363,0.00003464322071522474)" fill="#5726ef" fill-rule="evenodd"/><path d="M 37.38977432250977 56.55191421508789 L 37.38977432250977 64.0609130859375 C 37.38977432250977 70.71044921875 32.19574737548828 76.25209808349609 25.69548606872559 77.28108978271484 C 22.34192848205566 77.81211853027344 19.16537284851074 77.66176605224609 16.5827579498291 77.21071624755859 C 14.50557708740234 76.85669708251953 14.02999877929688 76.24888610839844 14.02999877929688 74.40950775146484 L 14.02999877929688 41.70027542114258 C 14.02999877929688 39.62308883666992 15.12936973571777 38.35098266601562 17.23641014099121 38.01722717285156 C 19.37330436706543 37.67919921875 20.44175148010254 38.60689926147461 20.44175148010254 40.68514251708984 L 20.44175148010254 47.74948120117188 L 19.96724128723145 49.24979400634766 C 21.18390846252441 48.61106491088867 23.67695426940918 47.71216201782227 26.31928062438965 47.29309844970703 C 33.1447639465332 46.21185684204102 37.38977432250977 50.70423889160156 37.38977432250977 56.55191421508789 M 30.97907447814941 57.77498245239258 C 30.97907447814941 54.77756500244141 28.63425254821777 53.24954223632812 25.66563034057617 53.71977996826172 C 22.9347972869873 54.15164184570312 21.33212471008301 54.93964385986328 20.44175148010254 55.31818771362305 L 20.44175148010254 71.04954528808594 C 21.45048713684082 71.12738037109375 22.9347972869873 71.42594909667969 25.66563034057617 70.99409484863281 C 28.63425254821777 70.52384185791016 30.97907447814941 68.19287872314453 30.97907447814941 65.19547271728516 L 30.97907447814941 57.77498245239258 Z" transform="matrix(1,0,0,1,0.9304035902023315,2.5166118144989014)" fill="#5726ef" fill-rule="evenodd"/><path d="M 52.88382720947266 48.82685470581055 C 51.34087753295898 49.07103729248047 49.73820114135742 49.91875839233398 48.66974639892578 50.97761535644531 L 48.66974639892578 69.46964263916016 C 48.66974639892578 71.60654449462891 47.6013069152832 72.90319061279297 45.582763671875 73.22307586669922 C 43.41494750976562 73.56642913818359 42.25799560546875 72.62274169921875 42.25799560546875 70.48477935791016 L 42.25799560546875 49.14461517333984 C 42.25799560546875 48.10602569580078 43.03000640869141 47.12287902832031 43.98009872436523 46.40738296508789 C 46.41342544555664 44.44856262207031 49.94506072998047 42.96958160400391 52.9136848449707 42.49933624267578 C 54.72429656982422 42.21249771118164 56.71296310424805 42.16558074951172 57.95949172973633 42.41296768188477 C 59.23586654663086 42.68593978881836 59.79994583129883 43.63496017456055 59.79994583129883 44.94013214111328 C 59.79994583129883 47.22737884521484 58.58221817016602 48.39818954467773 56.56474685668945 48.688232421875 C 55.28836441040039 48.68289947509766 53.80513000488281 48.68076705932617 52.88382720947266 48.82685470581055" transform="matrix(1,0,0,1,2.8023524284362793,2.8019957542419434)" fill="#5726ef" fill-rule="evenodd"/><path d="M 83.51033020019531 48.43390655517578 L 83.51033020019531 62.62229919433594 C 83.51033020019531 64.55125427246094 83.15415954589844 65.26142883300781 80.80935668945312 66.552734375 C 78.46558380126953 67.87283325195312 74.75480651855469 68.93594360351562 70.98432159423828 69.5330810546875 C 65.10786437988281 70.46398162841797 61.04200744628906 67.90269470214844 61.04200744628906 62.49966430664062 L 61.04200744628906 62.32159423828125 C 61.04200744628906 55.94076538085938 65.34564208984375 52.46884155273438 71.16344451904297 51.54754257202148 C 73.83458709716797 51.12422180175781 75.61532592773438 51.25857543945312 77.09963989257812 51.40892791748047 L 77.09963989257812 49.80519104003906 C 77.09963989257812 46.48148345947266 75.17066955566406 45.27334594726562 72.29161071777344 45.72866439819336 C 70.68893432617188 45.98244476318359 69.35284423828125 46.40364074707031 67.78003692626953 47.18631744384766 C 67.00697326660156 47.4571647644043 66.59217834472656 47.70134353637695 65.82121276855469 47.82290649414062 C 64.42542266845703 48.04470062255859 63.23860168457031 46.6595573425293 63.23860168457031 45.26374435424805 C 63.23860168457031 43.98737716674805 63.68326568603516 42.87840270996094 65.25606536865234 41.94644165039062 C 66.77024078369141 41.02408218383789 69.50106811523438 39.87886047363281 72.70641326904297 39.37128829956055 C 79.770751953125 38.25273132324219 83.51033020019531 41.9635009765625 83.51033020019531 48.43390655517578 M 77.09963989257812 62.36105346679688 L 77.09963989257812 56.45472717285156 C 75.70489501953125 56.37902069091797 73.80472564697266 56.41313934326172 72.11355590820312 56.68079376220703 C 69.41149139404297 57.10837554931641 67.48252868652344 58.30479431152344 67.48252868652344 60.88633728027344 L 67.48252868652344 60.946044921875 C 67.48252868652344 63.20130920410156 68.96684265136719 64.42118072509766 71.8160400390625 63.97012329101562 C 74.19072723388672 63.59371185302734 75.79338836669922 62.98377990722656 77.09963989257812 62.36105346679688" transform="matrix(1,0,0,1,4.048006534576416,2.597806215286255)" fill="#5726ef" fill-rule="evenodd"/><path d="M 112.9406890869141 44.07570648193359 L 112.9406890869141 59.30162048339844 C 112.9406890869141 61.43958282470703 111.8125305175781 62.74582672119141 109.6756362915039 63.08385467529297 C 107.5984420776367 63.41333770751953 106.5299987792969 62.4547119140625 106.5299987792969 60.31782531738281 L 106.5299987792969 45.44699859619141 C 106.5299987792969 42.03372192382812 104.3920440673828 40.68163299560547 101.4244918823242 41.15081024169922 C 99.01993560791016 41.53254699707031 97.29783630371094 42.19046783447266 95.99267578125 42.78227233886719 L 95.99267578125 61.98660278320312 C 95.99267578125 64.12349700927734 94.92423248291016 65.42014312744141 92.90569305419922 65.74002838134766 C 90.73894500732422 66.08338928222656 89.58198547363281 65.13970184326172 89.58198547363281 63.00173950195312 L 89.58198547363281 41.00792694091797 C 89.58198547363281 39.91069030761719 90.05651092529297 38.94354248046875 90.91701507568359 38.45196533203125 C 93.73741149902344 36.81730651855469 97.50685119628906 35.44921875 102.018424987793 34.73478698730469 C 108.6072006225586 33.69086456298828 112.9406890869141 37.42723083496094 112.9406890869141 44.07570648193359" transform="matrix(1,0,0,1,5.9406657218933105,2.2919387817382812)" fill="#5726ef" fill-rule="evenodd"/><path d="M 134.4325256347656 31.2864933013916 L 133.9580230712891 29.93653678894043 L 133.9580230712891 22.87220191955566 C 133.9580230712891 20.79501724243164 135.0264587402344 19.52717208862305 137.163330078125 19.18914794921875 C 139.2714538574219 18.85539054870605 140.3687133789062 19.77882385253906 140.3687133789062 21.85706901550293 L 140.3687133789062 54.5662841796875 C 140.3687133789062 56.40568542480469 139.8941955566406 57.1638298034668 137.8159027099609 58.17576599121094 C 135.234375 59.44574356079102 132.0578308105469 60.60163116455078 128.7042846679688 61.13265991210938 C 122.2040252685547 62.16271209716797 117.0099945068359 58.26640319824219 117.0099945068359 51.61685943603516 L 117.0099945068359 44.10786819458008 C 117.0099945068359 38.26019668579102 121.2549896240234 32.42425155639648 128.0804748535156 31.34300804138184 C 130.7217559814453 30.92394828796387 133.2158508300781 31.03377723693848 134.4325256347656 31.2864933013916 M 128.734130859375 54.8360595703125 C 131.4649810791016 54.40313720703125 132.9481964111328 53.63432693481445 133.9580230712891 53.23659515380859 L 133.9580230712891 37.50524520874023 C 133.067626953125 37.40927505493164 131.4649810791016 37.12883758544922 128.734130859375 37.56175994873047 C 125.7665710449219 38.03200531005859 123.4206848144531 40.30325698852539 123.4206848144531 43.30066299438477 L 123.4206848144531 50.72008895874023 C 123.4206848144531 53.71750259399414 125.7665710449219 55.30630874633789 128.734130859375 54.8360595703125" transform="matrix(1,0,0,1,7.759553909301758,1.2681092023849487)" fill="#5726ef" fill-rule="evenodd"/><path d="M 37.36524200439453 86.57083129882812 L 28.96587944030762 110.6962280273438 C 28.46150970458984 112.0813751220703 27.24484825134277 113.04638671875 25.82024955749512 113.2724456787109 C 24.54280471801758 113.4739837646484 23.23763275146484 113.0282440185547 22.70340538024902 111.6878967285156 L 14.302978515625 90.19417572021484 C 13.3240966796875 87.79604339599609 15.13470077514648 85.63888549804688 17.24174308776855 85.30619812011719 C 18.66634368896484 85.05027770996094 19.70492553710938 85.47894287109375 20.09094047546387 86.69454956054688 L 25.85010528564453 103.5615081787109 L 31.57835006713867 84.87541198730469 C 31.99314498901367 83.50306701660156 33.06266021728516 82.77051544189453 34.33797454833984 82.59775543212891 C 36.6529426574707 82.26081085205078 38.31533050537109 83.86773681640625 37.36524200439453 86.57083129882812" transform="matrix(1,0,0,1,0.9304034113883972,5.474540710449219)" fill="#5726ef" fill-rule="evenodd"/><path d="M 37.89799118041992 92.63400268554688 C 37.89799118041992 86.37151336669922 43.03231048583984 80.80856323242188 49.56241607666016 79.77423858642578 C 56.09146881103516 78.73990631103516 61.25669479370117 82.67142486572266 61.25669479370117 88.93387603759766 L 61.25669479370117 96.85981750488281 C 61.25669479370117 103.0924224853516 56.06267166137695 108.6340713500977 49.56241607666016 109.6630401611328 C 43.03231048583984 110.6973876953125 37.89799118041992 106.7925262451172 37.89799118041992 100.5599212646484 L 37.89799118041992 92.63400268554688 Z M 44.30868148803711 99.27608489990234 C 44.30868148803711 102.2734832763672 46.62471771240234 103.8367080688477 49.56241607666016 103.3728561401367 C 52.53103256225586 102.9015502929688 54.84600448608398 100.6047134399414 54.84600448608398 97.60729217529297 L 54.84600448608398 90.21666717529297 C 54.84600448608398 87.21926116943359 52.53103256225586 85.62725067138672 49.56241607666016 86.09749603271484 C 46.62471771240234 86.56239318847656 44.30868148803711 88.88909149169922 44.30868148803711 91.88545989990234 L 44.30868148803711 99.27608489990234 Z" transform="matrix(1,0,0,1,2.5132222175598145,5.279329776763916)" fill="#5726ef" fill-rule="evenodd"/><path d="M 86.79534912109375 73.88193511962891 C 90.50506591796875 73.29438781738281 93.05783081054688 74.16555786132812 94.57199096679688 75.02501678466797 C 97.09382629394531 76.49547576904297 95.34292602539062 80.27554321289062 93.35531616210938 80.59013366699219 C 92.22610473632812 80.79804992675781 91.89981079101562 80.67221832275391 91.03929138183594 80.57091522216797 C 90.11904907226562 80.30113983154297 88.6944580078125 79.90341186523438 86.49784851074219 80.25102233886719 C 83.61878967285156 80.70742034912109 81.33367919921875 83.05757141113281 81.33367919921875 85.96647644042969 L 81.33367919921875 93.44561767578125 C 81.33367919921875 96.29588317871094 83.56016540527344 97.9913330078125 86.49784851074219 97.52639770507812 C 88.6944580078125 97.17771148681641 90.09027099609375 96.36305999755859 91.03929138183594 95.73711395263672 C 91.78144836425781 95.41188812255859 92.22610473632812 95.16343688964844 93.35531616210938 95.01416778564453 C 95.34292602539062 94.69960021972656 97.09382629394531 97.92520141601562 94.57199096679688 100.1644592285156 C 92.99917602539062 101.5421447753906 90.92092895507812 103.1170959472656 86.55757141113281 103.8080596923828 C 79.64143371582031 104.9042358398438 74.92298889160156 100.6059188842773 74.92298889160156 94.61003112792969 L 74.92298889160156 86.83339691162109 C 74.92298889160156 80.77884674072266 79.73101806640625 75.00049591064453 86.79534912109375 73.88193511962891" transform="matrix(1,0,0,1,4.96854305267334,4.88677453994751)" fill="#5726ef" fill-rule="evenodd"/><path d="M 119.7587585449219 80.11307525634766 L 119.7587585449219 83.11155700683594 C 119.7587585449219 84.74301910400391 118.7489624023438 86.23905944824219 116.8797149658203 86.53549194335938 L 102.6028289794922 88.79608917236328 L 102.6028289794922 89.77603912353516 C 102.6028289794922 92.53672027587891 104.7397308349609 94.89861297607422 108.0943450927734 94.36759185791016 C 109.9038696289062 94.08074951171875 111.4180297851562 93.21810150146484 112.3670654296875 92.62202453613281 C 113.0804290771484 92.27227783203125 113.4952392578125 91.76044464111328 114.3567962646484 91.62395477294922 C 117.3840942382812 91.14517211914062 118.3341522216797 95.03083038330078 116.1076965332031 96.89689636230469 C 114.5050201416016 98.21910858154297 111.5374755859375 99.84737396240234 108.0335540771484 100.4018630981445 C 101.0886535644531 101.5023040771484 96.39898681640625 96.99177551269531 96.39898681640625 91.38190460205078 L 96.39898681640625 83.45597839355469 C 96.39898681640625 77.40144348144531 101.0886535644531 71.61347961425781 108.0335540771484 70.51303863525391 C 115.0093841552734 69.40834808349609 119.7587585449219 74.11826324462891 119.7587585449219 80.11307525634766 M 102.6028289794922 82.29582977294922 L 102.6028289794922 83.51249694824219 L 113.5250854492188 81.78294372558594 L 113.5250854492188 80.53641510009766 C 113.5250854492188 77.41957855224609 111.0917510986328 75.69853210449219 108.0335540771484 76.18263244628906 C 104.9774932861328 76.66675567626953 102.6028289794922 79.12034606933594 102.6028289794922 82.29582977294922" transform="matrix(1,0,0,1,6.392733097076416,4.6653733253479)" fill="#5726ef" fill-rule="evenodd"/><path d="M 121.1413116455078 76.67924499511719 C 121.1413116455078 71.66329956054688 125.3265991210938 67.79470825195312 130.4609222412109 66.98110961914062 C 133.4295196533203 66.51084899902344 135.6858367919922 66.80624389648438 137.9112701416016 67.55264282226562 C 139.2472839355469 67.96424865722656 139.8103637695312 69.09133911132812 139.7815551757812 70.22483825683594 C 139.7516937255859 71.68356323242188 138.6246032714844 73.31608581542969 136.9025268554688 73.58906555175781 C 136.1603546142578 73.70635986328125 135.2987670898438 73.4866943359375 134.5875549316406 73.39179992675781 C 133.6971740722656 73.23611450195312 132.4207763671875 72.963134765625 130.5504760742188 73.25958251953125 C 129.0363159179688 73.49949645996094 127.6714172363281 74.39840698242188 127.6714172363281 76.03092956542969 C 127.6714172363281 77.54507446289062 128.5617828369141 78.08677673339844 132.2427062988281 78.83853149414062 C 137.4367218017578 79.91551208496094 140.1675567626953 81.264404296875 140.1675567626953 86.04257202148438 C 140.1675567626953 91.92010498046875 135.7444915771484 95.97421264648438 130.3724060058594 96.82513427734375 C 126.9591217041016 97.36575317382812 124.0800628662109 96.72384643554688 122.5072631835938 96.25999450683594 C 120.7851409912109 95.82066345214844 120.0429992675781 94.89830017089844 120.0429992675781 93.62300109863281 C 120.0429992675781 91.81132507324219 121.4089508056641 90.34939575195312 123.0403900146484 90.09030151367188 C 123.8721313476562 89.95912170410156 125.0301666259766 90.19158935546875 125.9493255615234 90.34193420410156 C 127.0785522460938 90.60958862304688 128.4732818603516 90.86335754394531 130.5216674804688 90.53919982910156 C 132.3610534667969 90.24810791015625 133.6971740722656 89.08583068847656 133.6971740722656 87.36370849609375 C 133.6971740722656 85.46461486816406 132.0049133300781 85.19802856445312 128.9776458740234 84.46121215820312 C 125.4161529541016 83.65934753417969 121.1413116455078 82.73377990722656 121.1413116455078 76.67924499511719" transform="matrix(1,0,0,1,7.9606757164001465,4.426827430725098)" fill="#5726ef" fill-rule="evenodd"/><path d="M 70.55467224121094 102.7472229003906 C 70.55467224121094 104.8244094848633 69.45531463623047 106.0965118408203 67.34720611572266 106.4302673339844 C 65.24123382568359 106.7640228271484 64.14398956298828 105.8406066894531 64.14398956298828 103.762336730957 L 64.15785980224609 80.55718994140625 C 64.15785980224609 78.48001098632812 65.25615692138672 77.20789337158203 67.36427307128906 76.87413787841797 C 69.47130584716797 76.54038238525391 70.56855010986328 77.46487426757812 70.56855010986328 79.54205322265625 L 70.55467224121094 102.7472229003906 Z" transform="matrix(1,0,0,1,4.253730297088623,5.093510150909424)" fill="#5726ef" fill-rule="evenodd"/></g></g></svg>