<svg xmlns="http://www.w3.org/2000/svg" xmlns:xlink="http://www.w3.org/1999/xlink" width="135.81244949872723" height="148.2547534744625" viewBox="0 0.0004650313968718074 135.81244949872723 148.2547534744625"><defs><clipPath id="clip-e00e8bcd"><rect x="0" y="0" width="135.81332397460938" height="148.25521850585938" fill="#ffffff" fill-rule="evenodd"/></clipPath></defs><g clip-path="url(#clip-e00e8bcd)"><path d="M 37.48767471313477 148.2552795410156 C 36.73957061767578 148.2552795410156 35.99058151245117 147.9697418212891 35.41950225830078 147.3986663818359 L 5.38079309463501 117.3608551025391 C 2.054821491241455 114.6255340576172 0.1458795815706253 110.4118041992188 0.1369842290878296 105.7710952758789 L -4.151555913267657e-06 36.24415969848633 C -0.01779484935104847 27.22872161865234 7.0673508644104 18.71943092346191 15.79279899597168 17.27482604980469 L 118.8729858398438 0.217993825674057 C 123.2343826293945 -0.5043085217475891 127.392951965332 0.5862613320350647 130.5837097167969 3.286889314651489 C 133.8109436035156 6.018651008605957 135.6665344238281 10.19590759277344 135.6763153076172 14.749436378479 L 135.8124084472656 84.27637481689453 C 135.8311004638672 93.29180908203125 128.7459259033203 101.8011093139648 120.0195922851562 103.2457046508789 L 30.65959358215332 118.0324554443359 C 29.06732559204102 118.2957534790039 27.56045722961426 117.217643737793 27.2962646484375 115.6244888305664 C 27.03207206726074 114.0304336547852 28.11107635498047 112.5244522094727 29.7042350769043 112.2611541748047 L 119.0642471313477 97.47441101074219 C 124.984977722168 96.49502563476562 129.9752807617188 90.45597839355469 129.9628295898438 84.28794097900391 L 129.8267364501953 14.76100158691406 C 129.8204956054688 11.88602447509766 128.746826171875 9.396214485168457 126.8040771484375 7.752355575561523 C 124.9458541870117 6.178767204284668 122.4667205810547 5.553424835205078 119.8283462524414 5.988406658172607 L 16.74815940856934 23.04612922668457 C 10.8283052444458 24.02550888061523 5.837123870849609 30.06455993652344 5.8495774269104 36.23259735107422 L 5.986566066741943 105.7595367431641 C 5.991903305053711 108.7243576049805 7.123392105102539 111.2613220214844 9.171990394592285 112.9033889770508 L 9.410386085510254 113.1177673339844 L 39.55583572387695 143.2623291015625 C 40.69800186157227 144.4044952392578 40.69800186157227 146.2565002441406 39.55583572387695 147.3986663818359 C 38.98475646972656 147.9697418212891 38.23576736450195 148.2552795410156 37.48767471313477 148.2552795410156" transform="matrix(1,0,0,1,0.000004151550001552096,-0.000057801582443062216)" fill="#ffffff" fill-rule="evenodd"/><path d="M 33.51704788208008 53.46785354614258 L 33.51704788208008 59.73196029663086 C 33.51704788208008 65.27909851074219 29.18411827087402 69.90201568603516 23.76151084899902 70.76041412353516 C 20.96392631530762 71.20340728759766 18.31399917602539 71.07798004150391 16.1595458984375 70.70170593261719 C 14.42673301696777 70.40637969970703 14.02999877929688 69.89933776855469 14.02999877929688 68.36489868164062 L 14.02999877929688 41.07840728759766 C 14.02999877929688 39.3455924987793 14.94711017608643 38.28438186645508 16.70483207702637 38.00595855712891 C 18.48745918273926 37.72397232055664 19.3787727355957 38.49787139892578 19.3787727355957 40.23157119750977 L 19.3787727355957 46.12474060058594 L 18.98292922973633 47.37632369995117 C 19.99789047241211 46.84348678588867 22.07762336730957 46.09360885620117 24.28188896179199 45.7440185546875 C 29.97580146789551 44.84203338623047 33.51704788208008 48.58964157104492 33.51704788208008 53.46785354614258 M 28.16915512084961 54.48815155029297 C 28.16915512084961 51.98766708374023 26.21306991577148 50.71296691894531 23.73660469055176 51.10524749755859 C 21.45850563049316 51.46551132202148 20.12153434753418 52.12287521362305 19.3787727355957 52.43865966796875 L 19.3787727355957 65.56197357177734 C 20.22027397155762 65.62690734863281 21.45850563049316 65.8759765625 23.73660469055176 65.51571655273438 C 26.21306991577148 65.12342834472656 28.16915512084961 63.17890167236328 28.16915512084961 60.67842483520508 L 28.16915512084961 54.48815155029297 Z" transform="matrix(1,0,0,1,-1.549823522567749,-4.192065715789795)" fill="#ffffff" fill-rule="evenodd"/><path d="M 51.12221527099609 47.73695373535156 C 49.83506393432617 47.94065475463867 48.49808883666992 48.64783477783203 47.60676956176758 49.53114700317383 L 47.60676956176758 64.95745849609375 C 47.60676956176758 66.74008941650391 46.71546173095703 67.82176971435547 45.03156661987305 68.088623046875 C 43.22314453125 68.37505340576172 42.25799942016602 67.58781433105469 42.25799942016602 65.80429840087891 L 42.25799942016602 48.00203323364258 C 42.25799942016602 47.13562774658203 42.90201950073242 46.31547164916992 43.69459915161133 45.71859741210938 C 45.72451400756836 44.08452224731445 48.670654296875 42.85073471069336 51.14712142944336 42.45845031738281 C 52.65755844116211 42.21916580200195 54.31653213500977 42.18002700805664 55.35640335083008 42.38639831542969 C 56.42117309570312 42.61411666870117 56.89173889160156 43.40580368041992 56.89173889160156 44.49459457397461 C 56.89173889160156 46.40264892578125 55.87589263916016 47.37935638427734 54.19289016723633 47.62131118774414 C 53.12811279296875 47.61686325073242 51.89077758789062 47.61508560180664 51.12221527099609 47.73695373535156" transform="matrix(1,0,0,1,-4.668031692504883,-4.667449474334717)" fill="#ffffff" fill-rule="evenodd"/><path d="M 79.78539276123047 46.89868545532227 L 79.78539276123047 58.73483657836914 C 79.78539276123047 60.34400177001953 79.48827362060547 60.93643569946289 77.53220367431641 62.01366424560547 C 75.57699584960938 63.11490631103516 72.48141479492188 64.00177001953125 69.33602142333984 64.49990844726562 C 64.43379974365234 65.27648162841797 61.0420036315918 63.13981628417969 61.0420036315918 58.63253784179688 L 61.0420036315918 58.48398590087891 C 61.0420036315918 53.1610107421875 64.63215637207031 50.26468276977539 69.48545074462891 49.49612426757812 C 71.71375274658203 49.14298248291016 73.19927215576172 49.25506210327148 74.43750762939453 49.38048934936523 L 74.43750762939453 48.04262924194336 C 74.43750762939453 45.26994705200195 72.82833099365234 44.26210021972656 70.42658233642578 44.64193344116211 C 69.08960723876953 44.85364151000977 67.97502136230469 45.20500946044922 66.6629638671875 45.85792922973633 C 66.01806640625 46.0838737487793 65.67203521728516 46.28757095336914 65.02888488769531 46.38898086547852 C 63.86449813842773 46.57400512695312 62.87443923950195 45.41849899291992 62.87443923950195 44.25409317016602 C 62.87443923950195 43.18932723999023 63.24538040161133 42.26420593261719 64.55743408203125 41.48675155639648 C 65.82057952880859 40.71730804443359 68.09867095947266 39.76194763183594 70.77261352539062 39.33852386474609 C 76.66578674316406 38.4054069519043 79.78539276123047 41.50098419189453 79.78539276123047 46.89868545532227 M 74.43750762939453 58.51690292358398 L 74.43750762939453 53.58976745605469 C 73.27399444580078 53.52660751342773 71.6888427734375 53.55507278442383 70.27804565429688 53.77835083007812 C 68.02394866943359 54.13504791259766 66.41477966308594 55.13311386108398 66.41477966308594 57.28667449951172 L 66.41477966308594 57.33648681640625 C 66.41477966308594 59.21785736083984 67.65301513671875 60.23548889160156 70.02985382080078 59.85921096801758 C 72.01084899902344 59.54520416259766 73.34781646728516 59.03639221191406 74.43750762939453 58.51690292358398" transform="matrix(1,0,0,1,-6.743010520935059,-4.327320098876953)" fill="#ffffff" fill-rule="evenodd"/><path d="M 109.0681457519531 42.49835205078125 L 109.0681457519531 55.20001983642578 C 109.0681457519531 56.98353958129883 108.1270141601562 58.07322692871094 106.3443908691406 58.3552131652832 C 104.611572265625 58.63007354736328 103.7202606201172 57.83037567138672 103.7202606201172 56.04775238037109 L 103.7202606201172 43.64229965209961 C 103.7202606201172 40.79489898681641 101.9367446899414 39.66696548461914 99.46117401123047 40.0583610534668 C 97.45526123046875 40.37681198120117 96.01866149902344 40.92565536499023 94.92987823486328 41.41934967041016 L 94.92987823486328 57.43986892700195 C 94.92987823486328 59.22249984741211 94.03856658935547 60.30417633056641 92.35467529296875 60.5710334777832 C 90.54714202880859 60.85746765136719 89.58199310302734 60.07022857666016 89.58199310302734 58.28671264648438 L 89.58199310302734 39.93916320800781 C 89.58199310302734 39.02383422851562 89.97784423828125 38.21702575683594 90.69569396972656 37.80694580078125 C 93.04850769042969 36.44329071044922 96.19302368164062 35.3020133972168 99.95664215087891 34.70602798461914 C 105.4530868530273 33.83517074584961 109.0681457519531 36.95210266113281 109.0681457519531 42.49835205078125" transform="matrix(1,0,0,1,-9.895671844482422,-3.817819595336914)" fill="#ffffff" fill-rule="evenodd"/><path d="M 131.5441131591797 29.26986503601074 L 131.1482696533203 28.14371109008789 L 131.1482696533203 22.25054550170898 C 131.1482696533203 20.51772880554199 132.0395812988281 19.46007537841797 133.8221893310547 19.17809104919434 C 135.580810546875 18.89966583251953 136.4961547851562 19.67000579833984 136.4961547851562 21.40370750427246 L 136.4961547851562 48.69018936157227 C 136.4961547851562 50.22464370727539 136.1003112792969 50.85709762573242 134.3665771484375 51.70127105712891 C 132.2130279541016 52.76070404052734 129.5631103515625 53.72496032714844 126.7655334472656 54.16794967651367 C 121.3429260253906 55.0272331237793 117.0099945068359 51.77688217163086 117.0099945068359 46.22974014282227 L 117.0099945068359 39.96563339233398 C 117.0099945068359 35.08742523193359 120.5512313842773 30.21899795532227 126.2451477050781 29.31700897216797 C 128.4485321044922 28.9674243927002 130.5291442871094 29.05904579162598 131.5441131591797 29.26986503601074 M 126.7904357910156 48.91524124145508 C 129.0685424804688 48.55409240722656 130.3058624267578 47.91273880004883 131.1482696533203 47.5809440612793 L 131.1482696533203 34.45763397216797 C 130.4054870605469 34.3775749206543 129.0685424804688 34.14363098144531 126.7904357910156 34.50477981567383 C 124.3148498535156 34.89706420898438 122.3578796386719 36.79177474975586 122.3578796386719 39.29225158691406 L 122.3578796386719 45.48163986206055 C 122.3578796386719 47.98212432861328 124.3148498535156 49.30752944946289 126.7904357910156 48.91524124145508" transform="matrix(1,0,0,1,-12.925505638122559,-2.112362861633301)" fill="#ffffff" fill-rule="evenodd"/><path d="M 33.49658203125 85.90480041503906 L 26.48971748352051 106.0305404663086 C 26.0689640045166 107.1860427856445 25.05400848388672 107.9910736083984 23.8655891418457 108.1796569824219 C 22.7999267578125 108.347785949707 21.71113395690918 107.975944519043 21.26547431945801 106.8578033447266 L 14.25772094726562 88.92744445800781 C 13.44112491607666 86.92688751220703 14.95155620574951 85.12735748291016 16.70928001403809 84.84982299804688 C 17.89770126342773 84.63632965087891 18.76410102844238 84.99392700195312 19.08611869812012 86.00800323486328 L 23.89049530029297 100.0786590576172 L 28.66907691955566 84.49045562744141 C 29.01510429382324 83.34562683105469 29.90730857849121 82.73451995849609 30.97119331359863 82.59040069580078 C 32.90237045288086 82.30931854248047 34.28915786743164 83.64984130859375 33.49658203125 85.90480041503906" transform="matrix(1,0,0,1,-1.5498225688934326,-9.119267463684082)" fill="#ffffff" fill-rule="evenodd"/><path d="M 37.89799499511719 90.4747314453125 C 37.89799499511719 85.25048065185547 42.18111419677734 80.60978698730469 47.62862014770508 79.74694061279297 C 53.07524490356445 78.88408660888672 57.38414764404297 82.16381072998047 57.38414764404297 87.38803863525391 L 57.38414764404297 93.99996948242188 C 57.38414764404297 99.19929504394531 53.05122375488281 103.8222122192383 47.62862014770508 104.6805953979492 C 42.18111419677734 105.54345703125 37.89799499511719 102.2859725952148 37.89799499511719 97.08664703369141 L 37.89799499511719 90.4747314453125 Z M 43.24588012695312 96.01564788818359 C 43.24588012695312 98.51612091064453 45.17795181274414 99.82018280029297 47.62862014770508 99.43323516845703 C 50.10507965087891 99.04006195068359 52.03626251220703 97.12400817871094 52.03626251220703 94.62351989746094 L 52.03626251220703 88.45816040039062 C 52.03626251220703 85.95767974853516 50.10507965087891 84.62960052490234 47.62862014770508 85.02188873291016 C 45.17795181274414 85.40971374511719 43.24588012695312 87.35067749023438 43.24588012695312 89.85028839111328 L 43.24588012695312 96.01564788818359 Z" transform="matrix(1,0,0,1,-4.186399936676025,-8.794075965881348)" fill="#ffffff" fill-rule="evenodd"/><path d="M 84.82707977294922 73.85013580322266 C 87.92177581787109 73.35999298095703 90.05132293701172 74.08673858642578 91.31446075439453 74.8037109375 C 93.418212890625 76.03038787841797 91.95758819580078 79.18376922607422 90.29949951171875 79.44620513916016 C 89.35749053955078 79.61965179443359 89.08528900146484 79.51468658447266 88.36743927001953 79.43017578125 C 87.59976196289062 79.20512390136719 86.41133880615234 78.87333679199219 84.57890319824219 79.16331481933594 C 82.17715454101562 79.54405212402344 80.27088165283203 81.50457763671875 80.27088165283203 83.93122863769531 L 80.27088165283203 90.17043304443359 C 80.27088165283203 92.54816436767578 82.12824249267578 93.96253204345703 84.57890319824219 93.57467651367188 C 86.41133880615234 93.28379821777344 87.57575225830078 92.60420227050781 88.36743927001953 92.08203125 C 88.98654937744141 91.81072235107422 89.35749053955078 91.60346221923828 90.29949951171875 91.47893524169922 C 91.95758819580078 91.21652221679688 93.418212890625 93.90736389160156 91.31446075439453 95.77538299560547 C 90.00239562988281 96.92466735839844 88.26869964599609 98.23851013183594 84.62871551513672 98.81492614746094 C 78.85918426513672 99.7293701171875 74.92299652099609 96.14365386962891 74.92299652099609 91.14179992675781 L 74.92299652099609 84.65442657470703 C 74.92299652099609 79.6036376953125 78.93391418457031 74.78325653076172 84.82707977294922 73.85013580322266" transform="matrix(1,0,0,1,-8.276371955871582,-8.140183448791504)" fill="#ffffff" fill-rule="evenodd"/><path d="M 115.8860397338867 78.49474334716797 L 115.8860397338867 80.99612426757812 C 115.8860397338867 82.35710906982422 115.0436477661133 83.60512542724609 113.4843063354492 83.8524169921875 L 101.5743179321289 85.73823547363281 L 101.5743179321289 86.55572509765625 C 101.5743179321289 88.85872650146484 103.3569488525391 90.82904815673828 106.1554260253906 90.38606262207031 C 107.6649551391602 90.14677429199219 108.928092956543 89.42713928222656 109.7197875976562 88.92988586425781 C 110.3148880004883 88.63812255859375 110.6609191894531 88.21114349365234 111.3796539306641 88.09728240966797 C 113.9050598144531 87.6978759765625 114.6976165771484 90.93934631347656 112.8402709960938 92.49604034423828 C 111.5032958984375 93.59905242919922 109.0277252197266 94.95737457275391 106.1047058105469 95.41993713378906 C 100.3111724853516 96.33793640136719 96.39899444580078 92.5751953125 96.39899444580078 87.89536285400391 L 96.39899444580078 81.28343963623047 C 96.39899444580078 76.232666015625 100.3111724853516 71.40426635742188 106.1047058105469 70.48625946044922 C 111.9240493774414 69.56471252441406 115.8860397338867 73.49378967285156 115.8860397338867 78.49474334716797 M 101.5743179321289 80.31562805175781 L 101.5743179321289 81.33058929443359 L 110.6858291625977 79.88777160644531 L 110.6858291625977 78.847900390625 C 110.6858291625977 76.24779510498047 108.6558990478516 74.81207275390625 106.1047058105469 75.21591949462891 C 103.555305480957 75.61978149414062 101.5743179321289 77.66659545898438 101.5743179321289 80.31562805175781" transform="matrix(1,0,0,1,-10.648715019226074,-7.77138614654541)" fill="#ffffff" fill-rule="evenodd"/><path d="M 120.959228515625 75.03384399414062 C 120.959228515625 70.84947204589844 124.4506530761719 67.62223815917969 128.7337799072266 66.94352722167969 C 131.2102203369141 66.55123138427734 133.0924835205078 66.79764556884766 134.9489593505859 67.42030334472656 C 136.0634918212891 67.763671875 136.5332183837891 68.70391082763672 136.5091857910156 69.64949035644531 C 136.4842681884766 70.86637115478516 135.5440368652344 72.22824859619141 134.1074523925781 72.45597076416016 C 133.4883270263672 72.55382537841797 132.7695770263672 72.37057495117188 132.17626953125 72.29140472412109 C 131.4335021972656 72.16152954101562 130.3687133789062 71.93380737304688 128.8084869384766 72.18110656738281 C 127.5453491210938 72.38125610351562 126.40673828125 73.13113403320312 126.40673828125 74.49301147460938 C 126.40673828125 75.75613403320312 127.1494903564453 76.20802307128906 130.2201690673828 76.83514404296875 C 134.5530853271484 77.73358154296875 136.8311920166016 78.85884094238281 136.8311920166016 82.84485626220703 C 136.8311920166016 87.74797821044922 133.1414031982422 91.12997436523438 128.6599426269531 91.83982849121094 C 125.8125305175781 92.29081726074219 123.4107818603516 91.75532531738281 122.0987243652344 91.36837005615234 C 120.662109375 91.00188446044922 120.0429992675781 90.23243713378906 120.0429992675781 89.16855621337891 C 120.0429992675781 87.65723419189453 121.1824951171875 86.43767547607422 122.5434722900391 86.22152709960938 C 123.2373199462891 86.11210632324219 124.203369140625 86.3060302734375 124.9701385498047 86.43144989013672 C 125.9121551513672 86.65472412109375 127.0756683349609 86.86643218994141 128.7844543457031 86.59601593017578 C 130.3188934326172 86.35317993164062 131.4335021972656 85.38358306884766 131.4335021972656 83.94697570800781 C 131.4335021972656 82.36272430419922 130.0218048095703 82.14033508300781 127.4964141845703 81.52566528320312 C 124.5253601074219 80.85674285888672 120.959228515625 80.08461761474609 120.959228515625 75.03384399414062" transform="matrix(1,0,0,1,-13.260557174682617,-7.3740363121032715)" fill="#ffffff" fill-rule="evenodd"/><path d="M 69.49187469482422 98.44677734375 C 69.49187469482422 100.1795959472656 68.57477569580078 101.2408065795898 66.816162109375 101.5192260742188 C 65.059326171875 101.7976531982422 64.14398956298828 101.0273208618164 64.14398956298828 99.29360198974609 L 64.15556335449219 79.935546875 C 64.15556335449219 78.20273590087891 65.07177734375 77.14151763916016 66.83039855957031 76.86309051513672 C 68.58811187744141 76.58467102050781 69.50344848632812 77.35589599609375 69.50344848632812 79.08870697021484 L 69.49187469482422 98.44677734375 Z" transform="matrix(1,0,0,1,-7.085662364959717,-8.484539985656738)" fill="#ffffff" fill-rule="evenodd"/></g></svg>