<svg xmlns="http://www.w3.org/2000/svg" xmlns:xlink="http://www.w3.org/1999/xlink" width="50.80206298828125" height="38.11556625366211" viewBox="0.000003221362021577079 -0.00017998395196627825 50.80206298828125 38.11556625366211"><path d="M 39.07497406005859 0 C 42.52226638793945 0 45.33865356445312 1.163816928863525 47.52413940429688 3.491447448730469 C 49.71022415161133 5.81908130645752 50.80206298828125 8.920370101928711 50.80206298828125 12.79411125183105 C 50.80206298828125 15.81434631347656 50.10099029541016 18.7910270690918 48.69702529907227 21.72355079650879 C 47.29367446899414 24.65486717224121 45.17896270751953 27.50693893432617 42.35350036621094 30.2791690826416 C 39.52803802490234 33.05139541625977 35.98274993896484 35.663330078125 31.71824645996094 38.11556625366211 L 26.547607421875 30.86531257629395 C 29.63922309875488 29.58596229553223 32.40298461914062 27.92431831359863 34.83708190917969 25.881591796875 C 37.27117919921875 23.83705139160156 39.03989028930664 21.78464508056641 40.14079666137695 19.72377395629883 C 38.008544921875 19.86592292785645 36.0722770690918 19.55500793457031 34.33017730712891 18.7910270690918 C 32.58929443359375 18.02644157409668 31.19440650939941 16.925537109375 30.1455192565918 15.48649311065674 C 29.09784126281738 14.04684543609619 28.57279205322266 12.31442928314209 28.57279205322266 10.28864097595215 C 28.57279205322266 7.196419715881348 29.55151176452637 4.709099769592285 31.50471687316895 2.825459957122803 C 33.45973587036133 0.9412175416946411 35.98274993896484 0 39.07497406005859 0 M 12.52736186981201 0 C 15.97465705871582 0 18.79104614257812 1.163816928863525 20.97653007507324 3.491447448730469 C 23.16201210021973 5.81908130645752 24.25505638122559 8.920370101928711 24.25505638122559 12.79411125183105 C 24.25505638122559 15.81434631347656 23.55398368835449 18.7910270690918 22.14941787719727 21.72355079650879 C 20.74606513977051 24.65486717224121 18.63135528564453 27.50693893432617 15.80589294433594 30.2791690826416 C 12.98042964935303 33.05139541625977 9.435746192932129 35.663330078125 5.170640468597412 38.11556625366211 L 0 30.86531257629395 C 3.091615200042725 29.58596229553223 5.855376243591309 27.92431831359863 8.289472579956055 25.881591796875 C 10.72417545318604 23.83705139160156 12.49228096008301 21.78464508056641 13.59379005432129 19.72377395629883 C 11.46093273162842 19.86592292785645 9.52466869354248 19.55500793457031 7.78256893157959 18.7910270690918 C 6.041683673858643 18.02644157409668 4.646798610687256 16.925537109375 3.597910165786743 15.48649311065674 C 2.550236225128174 14.04684543609619 2.025789022445679 12.31442928314209 2.025789022445679 10.28864097595215 C 2.025789022445679 7.196419715881348 3.003301620483398 4.709099769592285 4.957108974456787 2.825459957122803 C 6.912733554840088 0.9412175416946411 9.435746192932129 0 12.52736186981201 0" transform="matrix(1,0,0,1,0.000003221362021577079,-0.00017998395196627825)" fill="#5725ef" fill-rule="evenodd"/></svg>